<svg viewBox="0 0 24 24" fill="none"
    xmlns="http://www.w3.org/2000/svg">
    <path fill-rule="evenodd" clip-rule="evenodd" d="M9.87101 4.54771C9.98874 4.47077 10.0862 4.4071 10.1421 4.3574C10.3263 4.19367 9.97927 3.51872 9.56903 3.31361C9.32122 3.1897 9.22432 3.2034 9.11917 3.21826C8.99854 3.23532 8.86704 3.25391 8.48432 3.06801C8.33046 2.99328 8.13505 3.2255 8.05452 3.37501C7.72975 3.97794 7.97265 5.19651 7.97265 5.19651C7.65259 4.92451 7.53035 4.59228 7.48146 3.90713C7.15842 4.09416 7.03312 4.40829 6.96476 4.57968C6.95083 4.61461 6.93926 4.6436 6.92887 4.66439C6.9123 4.69752 6.88487 4.72948 6.85222 4.76752C6.75477 4.88105 6.6109 5.04866 6.57133 5.46258C6.53989 5.79139 6.597 6.03032 6.6343 6.18636C6.65039 6.25371 6.6628 6.30561 6.6628 6.34263C6.6628 6.36826 6.65134 6.40265 6.63666 6.44672C6.58058 6.61502 6.47744 6.92456 6.7856 7.42735C7.02554 6.91014 7.24387 6.71835 7.72705 6.48589C7.25633 6.99755 6.9084 7.57061 6.9084 7.87761C6.9084 8.05151 6.95534 8.17932 7.05167 8.28729C7.11731 8.36086 7.20821 8.40992 7.30278 8.46095C7.35563 8.48948 7.40963 8.51862 7.461 8.553C7.50998 8.58579 7.55213 8.62762 7.59508 8.67025C7.68617 8.76066 7.78089 8.85467 7.95219 8.87368C8.10887 8.89107 8.18229 8.87172 8.26272 8.85054C8.30836 8.83851 8.35626 8.8259 8.42291 8.81906C8.50682 8.81045 8.58485 8.80951 8.65847 8.80861C8.78091 8.80712 8.89116 8.80579 8.99598 8.76961C9.23838 8.68593 9.40607 8.53074 9.38484 8.3688C9.3721 8.27164 9.28608 8.15848 9.17669 8.01459C8.97753 7.75259 8.70089 7.38867 8.64804 6.83382C8.72061 6.93163 8.78539 7.02263 8.84517 7.10659C9.17316 7.56728 9.35038 7.81621 9.8351 7.81621C10.2623 7.81621 10.2568 7.43765 10.2521 7.12013C10.2505 7.01176 10.249 6.91049 10.2649 6.83382C10.2987 6.67055 10.3541 6.48714 10.4104 6.30107C10.5587 5.81073 10.7126 5.30189 10.49 5.09418C10.1421 4.76944 8.99598 5.27838 8.99598 5.27838C9.22402 4.97052 9.60094 4.7242 9.87101 4.54771ZM8.27965 6.34263C8.49908 6.37772 8.60574 6.15445 8.62758 5.93331C8.64831 5.72332 8.58665 5.50351 8.40245 5.50351C8.21825 5.50351 8.06151 5.71747 8.05452 5.93331C8.04862 6.11565 8.08187 6.31101 8.27965 6.34263Z" fill="#EB001B"/>
    <path fill-rule="evenodd" clip-rule="evenodd" d="M17.0405 21.1977C17.083 21.0802 18.1765 18.0679 18.7584 17.9675C18.9778 17.9297 19.2966 17.9115 19.6346 17.8921C20.2111 17.8591 20.8432 17.8229 21.1325 17.681C22.2173 17.1489 22.5652 12.2779 22.4015 10.6201C22.3572 10.1716 22.0599 9.57264 21.7666 8.98158C21.4576 8.35892 21.153 7.74501 21.153 7.32503C21.153 6.07658 19.9046 3.86621 18.9222 2.65869C18.922 2.25111 17.4691 -0.429964 13.8874 0.0594531C15.2382 0.734851 15.2382 1.45117 15.2382 1.45117C12.2911 -1.04572 7.0926 0.386922 5.25063 5.36025C4.68546 6.88621 5.02703 8.37108 5.31707 9.63189C5.57552 10.7554 5.79305 11.701 5.29156 12.3393C4.6324 13.1782 4.13429 13.1901 3.86623 13.1966C3.84132 13.1972 3.8184 13.1977 3.79752 13.1989C4.43198 13.4581 5.70089 13.6082 6.47861 12.4211C7.16436 11.3745 7.43334 10.1355 7.5649 9.52956C7.57961 9.4618 7.5926 9.40196 7.60426 9.35119C7.37585 9.3056 7.26564 9.21893 7.0926 8.98279C6.54002 8.69304 6.41044 8.40142 6.35582 7.75481C5.98161 7.33671 5.92085 7.01112 6.08975 6.26076C5.90105 5.30088 6.05132 4.93563 6.45815 4.37786C6.64948 3.80951 6.96189 3.51839 7.72706 3.02708C7.99313 2.3517 8.07499 2.37216 8.97551 2.63822C9.32958 2.62765 9.51398 2.64906 9.79417 2.78148C11.2677 0.816717 13.7851 1.02138 15.5657 2.47449C17.0597 1.10325 18.431 2.1061 20.273 5.68771C20.2847 5.71673 20.2962 5.74517 20.3073 5.77308C19.3625 6.46373 18.8487 7.85192 19.2906 9.02373C19.4452 9.3909 20.804 9.46612 21.1275 8.61194C21.2298 8.84771 21.3415 9.08923 21.4498 9.32341L21.4499 9.32363C21.7039 9.87282 21.9392 10.3817 21.9921 10.6815C22.1354 11.8481 21.7875 16.8623 20.9074 17.2717C20.4668 17.5195 15.4308 17.9471 12.8846 15.7776C13.0754 16.7863 14.2014 17.3411 15.2406 17.8531C15.7616 18.1099 16.2609 18.3558 16.6095 18.6429C17.6337 19.4864 17.0712 21.1119 17.0405 21.1977ZM20.7092 7.13956C20.6821 6.88244 20.6217 6.62813 20.4961 6.2706C19.5275 7.06515 19.2678 7.65494 19.4338 8.86C19.5727 7.82686 20.1313 7.25028 20.7092 7.13956ZM20.4367 8.9828C20.5191 8.37123 20.4626 8.08344 20.1706 7.81622C20.4981 7.65249 20.7027 7.85715 20.7232 8.08228C20.7566 8.44981 20.7323 8.64964 20.4367 8.9828ZM19.8022 8.36881C19.841 8.21373 20.0888 7.95948 20.1297 8.12321C20.1706 8.28694 20.0565 8.53254 19.9046 8.53254C19.7818 8.53254 19.7818 8.45068 19.8022 8.36881Z" fill="currentColor"/>
    <path d="M20.4571 11.6025C19.925 11.6639 19.7189 12.2969 19.8022 12.3802C19.8636 12.4416 20.4776 12.4246 20.8869 12.0323C21.3141 11.623 21.0097 10.8862 20.8255 10.8043C20.8255 10.8043 20.9893 11.5411 20.4571 11.6025Z" fill="currentColor"/>
    <path d="M20.2646 13.4112C20.4692 13.2827 20.7002 13.1376 21.0302 13.3626C20.8095 13.4509 20.6708 13.5749 20.5424 13.6896C20.4327 13.7877 20.3305 13.8791 20.1911 13.9357C20.1143 13.9668 20.0501 13.9832 19.9765 14.0018L19.9765 14.0019C19.8932 14.023 19.798 14.0472 19.659 14.0994C19.5915 14.1247 19.5308 14.162 19.4719 14.1982C19.4048 14.2394 19.34 14.2793 19.2701 14.2985C18.925 14.3932 18.6643 14.4531 18.3696 14.4678C18.4617 14.4269 18.5896 14.3245 18.7431 14.2017C18.8966 14.0789 19.0757 13.9357 19.2701 13.8129C19.4845 13.6775 19.7711 13.6014 19.9394 13.5568C19.9859 13.5444 20.0234 13.5345 20.0478 13.5263C20.1189 13.5026 20.19 13.458 20.2646 13.4112Z" fill="currentColor"/>
    <path d="M20.1706 15.3683C19.8269 15.4793 19.311 14.9385 19.311 14.9385C19.9268 14.865 20.2923 14.7512 20.6823 14.4883C20.6823 14.4883 20.6618 15.2097 20.1706 15.3683Z" fill="currentColor"/>
    <path fill-rule="evenodd" clip-rule="evenodd" d="M14.747 11.8481C15.4089 11.8736 15.7383 11.5586 16.1045 11.2085C16.3271 10.9957 16.5633 10.7699 16.896 10.5996C16.5755 10.66 16.0978 10.8452 16.0978 10.8452C16.1117 10.2716 15.9953 10.0172 15.5657 9.80146L16.6913 9.55586C15.1054 9.11086 14.0921 9.47399 13.7646 10.8862L12.7823 10.8452C12.7823 10.8452 13.8972 11.8041 14.747 11.8481ZM14.8698 10.2722C14.8639 10.1196 15.0131 9.96519 15.1359 9.98565C15.2587 10.0061 15.3083 10.13 15.2996 10.2517C15.2904 10.3815 15.2046 10.4973 15.0745 10.4973C14.9444 10.4973 14.8749 10.4022 14.8698 10.2722Z" fill="currentColor"/>
    <path d="M10.3877 3.27268C11.6362 1.96283 13.4168 1.71724 14.9722 2.90429C12.3467 3.4052 11.7767 5.94693 11.4167 7.55227C11.3501 7.84909 11.2907 8.1139 11.2268 8.32788C11.1906 8.44917 11.1544 8.57221 11.1177 8.6968L11.1177 8.69685C10.7395 9.98077 10.3134 11.4277 9.38484 12.7895C8.15689 14.5906 6.40895 15.2749 4.80041 15.1636C1.54621 14.9385 1.11643 10.3336 3.57242 9.69913C2.95801 9.93543 2.09114 11.1727 2.65141 12.6667C3.1426 13.9766 4.45952 14.0891 5.12784 13.9152C6.62189 13.5263 7.28986 12.9884 8.15689 9.4126C9.3644 9.51493 9.95793 8.96233 9.95793 8.36881C10.8446 8.07861 10.8226 7.53442 10.8088 7.19642C10.8051 7.10534 10.8021 7.02923 10.8175 6.9771C11.2504 5.51783 11.3044 4.89582 10.6743 4.5416C10.817 4.03484 10.7236 3.75836 10.3877 3.27268Z" fill="currentColor"/>
    <path d="M18.4719 20.2393C18.3082 21.3308 17.2644 23.4461 14.6038 23.0637C11.4519 22.6106 11.2063 19.523 11.5338 17.0466C11.6168 16.4185 11.7442 15.8177 11.8667 15.2398C12.2385 13.4863 12.5654 11.9443 11.4724 10.4973C11.145 11.8481 9.73051 13.7256 8.48431 15.1432C6.84701 17.0056 6.17161 19.5844 8.07499 21.5492C8.61304 22.1046 9.34389 22.3883 10.1011 22.4906C8.09544 20.5258 8.32058 17.8243 9.60997 16.1051C9.36437 17.8652 9.49824 21.8962 12.3115 23.3707C15.9374 25.271 19.0374 22.4701 18.4719 20.2393Z" fill="currentColor"/>
    <path d="M7.11306 15.5525C5.65996 15.9209 4.1659 15.7367 4.1659 15.7367C4.16591 16.801 4.6581 19.3515 6.17161 19.2774C6.00566 17.6853 6.26689 16.884 7.11306 15.5525Z" fill="currentColor"/>
    <path d="M16.5071 8.26648L16.6709 7.69342C14.9517 7.61155 13.3362 8.34252 12.5367 9.65819C13.6623 8.7986 14.8883 8.32695 16.5071 8.26648Z" fill="currentColor"/>
</svg>
